<svg height="512pt" viewBox="0 0 512 512.12265" width="512pt" xmlns="http://www.w3.org/2000/svg"><path d="m114.835938 506.261719c-21.566407-86.066407-22.8125-251.144531 59.691406-347.300781 1.65625-1.964844 1.703125-4.824219.109375-6.839844s-4.386719-2.628906-6.679688-1.46875c-35.386719 17.859375-95.832031 57.539062-111.171875 113.875-.75 2.929687-3.316406 5.027344-6.335937 5.175781-3.015625.148437-5.777344-1.691406-6.808594-4.53125-11.292969-31.117187-29.695313-81.964844-38.472656-107.050781-.460938-1.136719-1.640625-1.808594-2.851563-1.625-1.214844.1875-2.140625 1.179687-2.2421872 2.402344-.3710938 68.589843 5.7578122 277.855468 107.3789062 352.21875 1.574219 1.246093 3.769531 1.34375 5.445313.238281 1.675781-1.101563 2.457031-3.15625 1.9375-5.09375zm0 0" fill="#95a5a5"/><path d="m509.375 8.273438c-5.183594-8.257813-16.078125-10.753907-24.339844-5.570313l-381.09375 352.75c-1.253906 16.523437-1.714844 32.828125-1.457031 48.613281l401.320313-371.457031c8.257812-5.183594 10.75-16.078125 5.570312-24.335937zm0 0" fill="#cb9080"/><path d="m114.929688 512h35.3125c19.421874 0 36.191406-21.363281 47.304687-40.605469 11.097656-18.738281 31.316406-30.167969 53.089844-30.015625h261.4375v70.621094zm0 0" fill="#7f5b53"/><g fill="#14a085"><path d="m344.394531 450.207031c-4.875 0-8.828125-3.953125-8.828125-8.828125v-114.757812c0-4.875 3.953125-8.828125 8.828125-8.828125s8.828125 3.953125 8.828125 8.828125v114.757812c0 4.875-3.953125 8.828125-8.828125 8.828125zm0 0"/><path d="m344.394531 335.449219c-2.339843 0-4.585937-.929688-6.238281-2.585938l-26.484375-26.484375c-3.34375-3.460937-3.296875-8.96875.105469-12.375 3.40625-3.402344 8.914062-3.453125 12.375-.105468l26.484375 26.480468c2.523437 2.527344 3.277343 6.324219 1.914062 9.621094-1.367187 3.296875-4.585937 5.449219-8.15625 5.449219zm0 0"/><path d="m344.394531 388.414062c-2.339843 0-4.585937-.929687-6.238281-2.585937l-26.484375-26.484375c-3.34375-3.460938-3.296875-8.96875.105469-12.371094 3.40625-3.40625 8.914062-3.453125 12.375-.109375l26.484375 26.484375c2.523437 2.523438 3.277343 6.320313 1.914062 9.617188-1.367187 3.296875-4.585937 5.449218-8.15625 5.449218zm0 0"/><path d="m344.394531 441.378906c-2.339843 0-4.585937-.929687-6.238281-2.585937l-26.484375-26.480469c-3.34375-3.464844-3.296875-8.972656.105469-12.375 3.40625-3.40625 8.914062-3.453125 12.375-.109375l26.484375 26.484375c2.523437 2.523438 3.277343 6.320312 1.914062 9.617188-1.367187 3.300781-4.585937 5.449218-8.15625 5.449218zm0 0"/><path d="m344.394531 335.449219c-3.570312 0-6.785156-2.152344-8.152343-5.449219-1.367188-3.296875-.613282-7.09375 1.914062-9.621094l26.480469-26.480468c3.464843-3.347657 8.96875-3.296876 12.375.105468 3.40625 3.40625 3.453125 8.914063.109375 12.375l-26.484375 26.484375c-1.65625 1.65625-3.898438 2.585938-6.242188 2.585938zm0 0"/><path d="m344.394531 388.414062c-3.570312 0-6.785156-2.152343-8.152343-5.449218-1.367188-3.296875-.613282-7.09375 1.914062-9.617188l26.480469-26.484375c3.464843-3.34375 8.96875-3.296875 12.375.109375 3.40625 3.402344 3.453125 8.910156.109375 12.371094l-26.484375 26.484375c-1.65625 1.65625-3.898438 2.585937-6.242188 2.585937zm0 0"/><path d="m344.394531 441.378906c-3.570312 0-6.785156-2.148437-8.152343-5.449218-1.367188-3.296876-.613282-7.09375 1.914062-9.617188l26.480469-26.484375c3.464843-3.34375 8.96875-3.296875 12.375.109375 3.40625 3.402344 3.453125 8.910156.109375 12.375l-26.484375 26.480469c-1.65625 1.65625-3.898438 2.585937-6.242188 2.585937zm0 0"/><path d="m450.28125 450.207031c-4.875 0-8.828125-3.953125-8.828125-8.828125v-114.757812c0-4.875 3.953125-8.828125 8.828125-8.828125s8.828125 3.953125 8.828125 8.828125v114.757812c0 4.875-3.953125 8.828125-8.828125 8.828125zm0 0"/><path d="m450.28125 335.449219c-2.339844 0-4.585938-.929688-6.238281-2.585938l-26.484375-26.484375c-3.34375-3.460937-3.296875-8.96875.109375-12.375 3.402343-3.402344 8.910156-3.453125 12.371093-.105468l26.484376 26.480468c2.523437 2.527344 3.277343 6.324219 1.914062 9.621094-1.367188 3.296875-4.585938 5.449219-8.15625 5.449219zm0 0"/><path d="m450.28125 388.414062c-2.339844 0-4.585938-.929687-6.238281-2.585937l-26.484375-26.484375c-3.34375-3.460938-3.296875-8.96875.109375-12.371094 3.402343-3.40625 8.910156-3.453125 12.371093-.109375l26.484376 26.484375c2.523437 2.523438 3.277343 6.320313 1.914062 9.617188-1.367188 3.296875-4.585938 5.449218-8.15625 5.449218zm0 0"/><path d="m450.28125 441.378906c-2.339844 0-4.585938-.929687-6.238281-2.585937l-26.484375-26.480469c-3.34375-3.464844-3.296875-8.972656.109375-12.375 3.402343-3.40625 8.910156-3.453125 12.371093-.109375l26.484376 26.484375c2.523437 2.523438 3.277343 6.320312 1.914062 9.617188-1.367188 3.300781-4.585938 5.449218-8.15625 5.449218zm0 0"/><path d="m450.28125 335.449219c-3.570312 0-6.785156-2.152344-8.152344-5.449219-1.367187-3.296875-.613281-7.09375 1.914063-9.621094l26.480469-26.480468c3.464843-3.347657 8.96875-3.296876 12.375.105468 3.40625 3.40625 3.453124 8.914063.109374 12.375l-26.484374 26.484375c-1.65625 1.65625-3.898438 2.585938-6.242188 2.585938zm0 0"/><path d="m450.28125 388.414062c-3.570312 0-6.785156-2.152343-8.152344-5.449218-1.367187-3.296875-.613281-7.09375 1.914063-9.617188l26.480469-26.484375c3.464843-3.34375 8.96875-3.296875 12.375.109375 3.40625 3.402344 3.453124 8.910156.109374 12.371094l-26.484374 26.484375c-1.65625 1.65625-3.898438 2.585937-6.242188 2.585937zm0 0"/><path d="m450.28125 441.378906c-3.570312 0-6.785156-2.148437-8.152344-5.449218-1.367187-3.296876-.613281-7.09375 1.914063-9.617188l26.480469-26.484375c3.464843-3.34375 8.96875-3.296875 12.375.109375 3.40625 3.402344 3.453124 8.910156.109374 12.375l-26.484374 26.480469c-1.65625 1.65625-3.898438 2.585937-6.242188 2.585937zm0 0"/></g></svg>