<?xml version="1.0" encoding="iso-8859-1"?>
<!-- Generator: Adobe Illustrator 19.0.0, SVG Export Plug-In . SVG Version: 6.00 Build 0)  -->
<svg version="1.1" id="Capa_1" xmlns="http://www.w3.org/2000/svg" xmlns:xlink="http://www.w3.org/1999/xlink" x="0px" y="0px"
	 viewBox="0 0 512.267 512.267" style="enable-background:new 0 0 512.267 512.267;" xml:space="preserve">
<path style="fill:#344A5E;" d="M175.067,376.8l-3.2-4.267c0,0-4.267-9.6,2.133-19.2l30.933-6.4c0,0,10.667,10.667,16,12.8
	c5.333,2.133,17.067,6.4,21.333,7.467c4.267,0,8.533,2.133,8.533,6.4c0,4.267-12.8,10.667-19.2,10.667
	c-6.4,1.067-24.533,1.067-28.8-1.067C198.533,382.133,183.6,376.8,175.067,376.8z"/>
<g>
	<path style="fill:#415A6B;" d="M250.8,373.6c0,0-2.133,3.2-5.333,5.333s-23.467,6.4-29.867,5.333
		c-6.4-1.067-18.133-6.4-24.533-7.467c-6.4-1.067-17.067-2.133-19.2-4.267V380l16,3.2l1.067-3.2c0,0,8.533,2.133,12.8,3.2
		c4.267,2.133,12.8,4.267,25.6,2.133C241.2,383.2,255.067,381.067,250.8,373.6z"/>
	<path style="fill:#415A6B;" d="M54.533,256.267c0,0,7.467,28.8,13.867,49.067c6.4,20.267,8.533,46.933,6.4,56.533
		c-2.133,10.667-9.6,61.867-9.6,81.067s0,24.533,0,24.533s9.6,6.4,20.267,2.133s13.867-12.8,13.867-12.8s-4.267-14.933-1.067-25.6
		c2.133-10.667,6.4-46.933,9.6-56.533c3.2-9.6,5.333-20.267,6.4-26.667c0-6.4,3.2-30.933,3.2-43.733c0-12.8,3.2-39.467,3.2-39.467
		s39.467-2.133,56.533-6.4c0,0-2.133,29.867-2.133,45.867s0,49.067,0,49.067s4.267,2.133,12.8,2.133c8.533,0,19.2-5.333,22.4-4.267
		c0,0-1.067-36.267-1.067-49.067s4.267-38.4,6.4-49.067c2.133-10.667-1.067-22.4-9.6-28.8c-9.6-5.333-67.2-18.133-86.4-20.267
		s-19.2-2.133-19.2-2.133L54.533,256.267z"/>
</g>
<path style="fill:#CED6E0;" d="M104.667,88.8c0,0,11.733,33.067,13.867,44.8c2.133,10.667,2.133,10.667,2.133,10.667L90.8,87.733
	L104.667,88.8z"/>
<path style="fill:#344A5E;" d="M105.733,89.867c0,0,11.733,33.067,13.867,44.8c2.133,11.733,4.267,20.267,4.267,20.267
	s3.2-10.667,1.067-21.333s-6.4-24.533-10.667-36.267c-4.267-10.667-7.467-16-7.467-16L105.733,89.867"/>
<path style="fill:#FFD15C;" d="M124.933,17.333l7.467,5.333c0,0,2.133,9.6,1.067,13.867c-1.067,3.2-1.067,3.2,0,6.4
	c1.067,2.133,5.333,7.467,5.333,7.467s1.067,3.2-1.067,4.267c-2.133,1.067-4.267,1.067-4.267,1.067s1.067,3.2,0,4.267
	c0,0,2.133,1.067,0,4.267c-2.133,2.133,1.067,5.333,0,8.533c-1.067,4.267-16,3.2-18.133,3.2c-4.267-1.067-19.2,25.6-19.2,25.6
	L74.8,69.6l2.133-7.467l8.533-25.6L124.933,17.333z"/>
<path style="fill:#415A6B;" d="M131.333,23.733c0,0,6.4-3.2,7.467-10.667s-10.667-6.4-17.067-9.6
	c-5.333-2.133-27.733-9.6-41.6,7.467s-3.2,52.267-3.2,52.267s13.867-8.533,14.933-16c1.067-7.467,3.2-11.733,8.533-10.667
	c5.333,1.067,7.467,10.667,7.467,10.667l4.267-1.067c0,0-4.267-4.267,1.067-9.6c4.267-5.333,8.533-5.333,7.467-10.667
	C120.667,20.533,131.333,23.733,131.333,23.733z"/>
<path style="fill:#F3F3F3;" d="M76.933,63.2c0,0,5.333,4.267,12.8,8.533C97.2,76,104.667,82.4,106.8,86.667
	c0,0-2.133,10.667-6.4,17.067c-4.267,6.4-4.267,6.4-4.267,6.4L74.8,69.6L76.933,63.2z"/>
<ellipse transform="matrix(0.1669 0.986 -0.986 0.1669 123.7071 -63.6255)" style="fill:#FFD15C;" cx="99.504" cy="41.391" rx="8.534" ry="6.4"/>
<path style="fill:#344A5E;" d="M68.4,77.067c0,0-7.467,2.133-14.933,11.733c-7.467,9.6-12.8,20.267-12.8,20.267
	S49.2,96.267,60.933,98.4S79.067,119.733,78,127.2c-1.067,7.467-26.667,52.267-27.733,60.8s-6.4,80-6.4,80
	s40.533,8.533,56.533,2.133s21.333-14.933,21.333-27.733c1.067-13.867,0-27.733,0-27.733s13.867,0,18.133-4.267
	c0,0,3.2-1.067-5.333-4.267s-14.933-7.467-14.933-7.467s0-20.267,1.067-25.6c1.067-5.333,3.2-20.267,2.133-26.667
	c-2.133-6.4-40.533-64-40.533-64L68.4,77.067z"/>
<g>
	<path style="fill:#415A6B;" d="M74.8,68.533c0,0,0,2.133,3.2,4.267c3.2,2.133,17.067,20.267,28.8,35.2s16,27.733,17.067,38.4
		c2.133,10.667-3.2,22.4-3.2,26.667c0,0,1.067-11.733,1.067-18.133c0-6.4-7.467-20.267-9.6-22.4s-27.733-32-27.733-32l2.133-6.4
		L81.2,92c0,0-5.333-6.4-8.533-9.6c-4.267-4.267-4.267-5.333-2.133-7.467C71.6,72.8,72.667,69.6,74.8,68.533z"/>
	<path style="fill:#415A6B;" d="M40.667,109.067c0,0,5.333-11.733,14.933-13.867s28.8,8.533,23.467,36.267S58.8,175.2,55.6,181.6
		c-3.2,6.4-7.467,10.667-7.467,10.667s-1.067,21.333,2.133,42.667s4.267,25.6,4.267,25.6s-5.333,6.4-27.733,6.4
		c0,0-4.267-38.4-5.333-46.933c-1.067-8.533-4.267-17.067-3.2-24.533c1.067-7.467,3.2-13.867,6.4-22.4
		c3.2-8.533,5.333-19.2,5.333-19.2s-1.067-9.6,4.267-11.733c0,0,1.067-8.533,2.133-11.733C37.467,127.2,38.533,114.4,40.667,109.067
		z"/>
</g>
<g>
	<path style="fill:#344A5E;" d="M124.933,225.333c0-2.133,0-5.333,1.067-7.467c1.067-2.133,1.067-3.2,1.067,2.133
		c-1.067,10.667,0,13.867-1.067,19.2c0,0,13.867-26.667,10.667-21.333c-2.133,5.333-8.533,21.333-8.533,21.333
		s10.667-12.8,9.6-10.667c0,2.133-9.6,13.867-10.667,17.067c-1.067,3.2,5.333,14.933,19.2,17.067
		c-13.867,1.067-25.6,2.133-25.6,2.133S124.933,239.2,124.933,225.333z"/>
	<path style="fill:#344A5E;" d="M64.133,484.533l-3.2-4.267c0,0-3.2-10.667,4.267-18.133l30.933-3.2c0,0,9.6,11.733,14.933,13.867
		c5.333,3.2,16,8.533,21.333,9.6c5.333,1.067,8.533,3.2,7.467,7.467c-1.067,4.267-13.867,8.533-20.267,9.6
		c-6.4,0-24.533-2.133-28.8-4.267C86.533,493.067,72.667,485.6,64.133,484.533z"/>
</g>
<path style="fill:#415A6B;" d="M139.867,488.8c0,0-2.133,3.2-6.4,4.267c-4.267,1.067-24.533,4.267-30.933,2.133
	c-6.4-1.067-17.067-7.467-23.467-8.533c-5.333-2.133-16-4.267-18.133-6.4l-1.067,7.467l14.933,5.333l1.067-2.133
	c0,0,8.533,3.2,12.8,5.333c4.267,2.133,12.8,5.333,25.6,4.267C128.133,498.4,143.067,497.333,139.867,488.8z"/>
<path style="fill:#FFD15C;" d="M65.2,284c0,1.067,0,1.067,1.067,2.133c0,2.133,2.133,4.267,2.133,5.333
	c1.067,2.133,1.067,6.4,1.067,6.4l1.067,5.333c-5.333,1.067-6.4-2.133-6.4-2.133L62,287.2L65.2,284z"/>
<path style="fill:#F7B64C;" d="M64.133,301.067c0,0,0-1.067,0-2.133c0-1.067,0-3.2,0-4.267c0-1.067,0-2.133,0-2.133
	c0-1.067,0-1.067,0-2.133s-1.067-2.133-1.067-2.133s0,1.067,0,2.133s0,1.067,0,2.133c0,1.067,0,2.133,0,2.133
	c0,2.133,0,3.2,1.067,4.267C64.133,300,64.133,301.067,64.133,301.067z"/>
<g>
	<path style="fill:#4ABAA5;" d="M34.267,305.333c0-7.467,6.4-12.8,12.8-12.8H62c7.467,0,12.8,6.4,12.8,12.8V332H34.267V305.333z
		 M68.4,305.333c0-3.2-2.133-6.4-6.4-6.4H47.067c-3.2,0-6.4,2.133-6.4,6.4v19.2h26.667v-19.2H68.4z"/>
	<path style="fill:#4ABAA5;" d="M3.333,317.067v61.867c0,3.2,3.2,6.4,6.4,6.4H100.4c3.2,0,6.4-3.2,6.4-6.4v-61.867
		c0-3.2-3.2-6.4-6.4-6.4H9.733C6.533,310.667,3.333,313.867,3.333,317.067z"/>
</g>
<path style="fill:#FFD15C;" d="M35.333,263.733l16-4.267c0,0,3.2,8.533,4.267,9.6s6.4,9.6,8.533,12.8l1.067,1.067l-2.133,3.2
	l1.067,14.933c0,1.067,0,4.267-2.133,5.333c-2.133,1.067-3.2-1.067-3.2-1.067s0,2.133-2.133,2.133S52.4,303.2,52.4,303.2
	s0,3.2-3.2,3.2c-2.133,0-3.2-5.333-3.2-5.333s-1.067,1.067-2.133,2.133c-1.067,0-3.2-1.067-3.2-4.267
	c-1.067-3.2-3.2-18.133-2.133-22.4C37.467,272.267,35.333,264.8,35.333,263.733L35.333,263.733z"/>
<g>
	<path style="fill:#F7B64C;" d="M58.8,305.333C58.8,305.333,58.8,304.267,58.8,305.333c0-2.133,0-2.133,0-3.2v-1.067
		c0,0,0,0,0-1.067l0,0c0-1.067,0-1.067,0-1.067s0,0,0,1.067l0,0l0,0v1.067C57.733,303.2,57.733,303.2,58.8,305.333
		C58.8,304.267,58.8,305.333,58.8,305.333z"/>
	<path style="fill:#F7B64C;" d="M52.4,303.2L52.4,303.2c0-1.067,0-1.067,0-2.133V300l0,0c0,0,0,0,0,1.067v1.067
		C51.333,302.133,52.4,302.133,52.4,303.2L52.4,303.2z"/>
	<path style="fill:#F7B64C;" d="M46,301.067C46,301.067,46,300,46,301.067c0-1.067,0-1.067,0-2.133v-1.067l0,0c0,0,0,0,0,1.067V300
		C44.933,300,46,300,46,301.067C46,300,46,301.067,46,301.067z"/>
</g>
<g>
	<rect x="82.267" y="310.667" style="fill:#66C6B9;" width="8.533" height="73.6"/>
	<rect x="18.267" y="310.667" style="fill:#66C6B9;" width="8.533" height="73.6"/>
</g>
<path style="fill:#F3705A;" d="M512.133,178.4l-17.067,58.667L481.2,223.2l-77.867,77.867h-99.2v89.6
	c0,5.333-4.267,10.667-10.667,10.667H167.6V501.6c0,5.333-4.267,10.667-10.667,10.667H0.133V492h149.333V390.667
	c0-5.333,4.267-10.667,10.667-10.667H286v-90.667c0-5.333,4.267-10.667,10.667-10.667h100.267L468.4,207.2l-13.867-13.867
	L512.133,178.4z"/>
<g>
</g>
<g>
</g>
<g>
</g>
<g>
</g>
<g>
</g>
<g>
</g>
<g>
</g>
<g>
</g>
<g>
</g>
<g>
</g>
<g>
</g>
<g>
</g>
<g>
</g>
<g>
</g>
<g>
</g>
</svg>
