<?xml version="1.0" encoding="iso-8859-1"?>
<!-- Generator: Adobe Illustrator 22.1.0, SVG Export Plug-In . SVG Version: 6.00 Build 0)  -->
<svg xmlns="http://www.w3.org/2000/svg" xmlns:xlink="http://www.w3.org/1999/xlink" version="1.1" id="Layer_1_1_" x="0px" y="0px" viewBox="0 0 64 64" style="enable-background:new 0 0 64 64;" xml:space="preserve" width="512" height="512">
<linearGradient id="SVGID_1_" gradientUnits="userSpaceOnUse" x1="32" y1="63" x2="32" y2="1">
	<stop offset="0" style="stop-color:#9F2FFF"/>
	<stop offset="1" style="stop-color:#0BB1D3"/>
</linearGradient>
<path style="fill:url(#SVGID_1_);" d="M54,33V8h-5.414l-12,12H19.441L13,30.467V1h-2v4H7v2h4v4H7v2h4v4H7v2h4v4H7v2h4v4H7v2h4v2H1  v30h62V33H54z M52,33h-2V10h2V33z M38,30.261v-8.847l2-2v11.919C39.363,30.929,38.697,30.567,38,30.261z M36,29.558  c-0.65-0.18-1.318-0.317-2-0.409V22h2V29.558z M32,29c-0.68,0-1.344,0.061-2,0.149V22h2V29z M28,29.558  c-0.687,0.191-1.356,0.421-2,0.703V22h2V29.558z M24,31.333c-0.71,0.45-1.377,0.958-2,1.518V22h2V31.333z M32,31  c7.168,0,13,5.832,13,13s-5.832,13-13,13s-13-5.832-13-13S24.832,31,32,31z M42.164,33c-0.054-0.05-0.109-0.099-0.164-0.149V17.414  l2-2V33H42.164z M46,13.414l2-2V33h-2V13.414z M20,22.908V33h-2v-6.842L20,22.908z M13.789,33L16,29.408V33H13.789z M61,61H3V35  h17.028C18.136,37.51,17,40.621,17,44c0,8.271,6.729,15,15,15s15-6.729,15-15c0-3.379-1.136-6.49-3.028-9H61V61z M7,42H5v-5h5v2H7  V42z M7,57h3v2H5v-5h2V57z M57,39h-3v-2h5v5h-2V39z M57,54h2v5h-5v-2h3V54z M33,46c0-0.551-0.448-1-1-1c-1.654,0-3-1.346-3-3  c0-1.302,0.839-2.402,2-2.816V38h2v1.184c1.161,0.414,2,1.514,2,2.816h-2c0-0.551-0.448-1-1-1s-1,0.449-1,1s0.448,1,1,1  c1.654,0,3,1.346,3,3c0,1.302-0.839,2.402-2,2.816V50h-2v-1.184c-1.161-0.414-2-1.514-2-2.816h2c0,0.551,0.448,1,1,1  S33,46.551,33,46z M32,55c6.065,0,11-4.935,11-11s-4.935-11-11-11s-11,4.935-11,11S25.935,55,32,55z M32,35c4.963,0,9,4.038,9,9  s-4.037,9-9,9s-9-4.038-9-9S27.037,35,32,35z M35.414,18H15v-2h19.586l13-13H46V1h5v5h-2V4.414L35.414,18z M57,47h2v2h-2V47z M55,49  h-2v-2h2V49z M51,49h-2v-2h2V49z M13,47h2v2h-2V47z M9,47h2v2H9V47z M7,49H5v-2h2V49z"/>
</svg>
