<?xml version="1.0" encoding="iso-8859-1"?>
<!-- Generator: Adobe Illustrator 21.0.0, SVG Export Plug-In . SVG Version: 6.00 Build 0)  -->
<svg xmlns="http://www.w3.org/2000/svg" xmlns:xlink="http://www.w3.org/1999/xlink" version="1.1" id="Capa_1" x="0px" y="0px" viewBox="0 0 512 512" style="enable-background:new 0 0 512 512;" xml:space="preserve" width="512" height="512">
<g>
	<path style="fill:#7C8388;" d="M446.3,50.7L409.999,106l-62.098,30L347,135.7L284.001,106L249.5,53.399   c-2.999-4.799-3.3-10.499-0.601-15.599c2.401-4.801,7.5-7.8,13.2-7.8H317c6.301,0,12.9-5.4,20.4-11.7c3.001-2.401,6-4.799,9.6-7.2   c8.101-6,17.999-11.1,30-11.1c22.8,0,51,19.2,66,30.599C449.299,35.4,450.5,44.099,446.3,50.7z"/>
	<path style="fill:#32393F;" d="M347.901,136L347,135.7V11.1c8.101-6,17.999-11.1,30-11.1c22.8,0,51,19.2,66,30.599   c6.299,4.801,7.5,13.5,3.3,20.101L409.999,106L347.901,136z"/>
	<path style="fill:#7C8388;" d="M512,347c0,69-41.4,105-81.899,105L347,476.3l-19.501,5.7l-93.6-30   c-42.599-36.301-59.399-83.101-48.6-135.601c12.9-63.9,63.6-124.3,93.001-150.399L347,136.3l0.901-0.3l67.798,30   C449.299,196.3,512,272,512,347z"/>
	<path style="fill:#32393F;" d="M512,347c0,69-41.4,105-81.899,105L347,476.3v-340l0.901-0.3l67.798,30   C449.299,196.3,512,272,512,347z"/>
	<path style="fill:#FED2A4;" d="M512,482c0,16.5-13.5,30-30,30H290.3c-15,0-29.399-4.501-41.7-12.601L98.899,399.5   c-7.5-4.801-16.199-7.5-25.199-7.5H15c-8.401,0-15-6.601-15-15V257c0-8.401,6.599-15,15-15h165.5c35.099,0,67.5,13.799,90.899,35.4   c3.9,3.6,44.7,40.8,75.601,68.699c18.3,16.5,32.999,30,34.501,31.5c12.9,11.7,12.599,30.901,2.399,42.301   c-11.699,11.7-26.1,12.599-36.899,6.301c-2.1-0.901-3.9-2.401-5.7-3.9l-105.899-72.601c-6.901-4.799-16.201-2.999-20.7,3.9   c-4.801,6.901-3.001,16.201,3.898,20.7l99.901,67.5C326.3,448.4,336.501,452,347,452h135C498.5,452,512,465.5,512,482z"/>
	<path style="fill:#FFD396;" d="M415.699,166H278.301c10.8-9.6,20.999-13.801,20.999-30c0-5.7,0.3-10.8-15.298-30h125.999   c-11.4,16.8-15.298,18.9-15.298,30C394.701,152.199,404.599,156.099,415.699,166z"/>
	<path style="fill:#FFBD86;" d="M347,426.2v-80.101c18.3,16.5,32.999,30,34.501,31.5c12.9,11.7,12.599,30.901,2.399,42.301   C372.201,431.6,357.8,432.499,347,426.2z"/>
	<path style="fill:#FFBD86;" d="M512,482c0,16.5-13.5,30-30,30H347v-60h135C498.5,452,512,465.5,512,482z"/>
	<path style="fill:#FFB64C;" d="M415.699,166H347v-60h62.999c-11.4,16.8-15.298,18.9-15.298,30   C394.701,152.199,404.599,156.099,415.699,166z"/>
</g>















</svg>
