<?xml version="1.0" encoding="iso-8859-1"?>
<!-- Generator: Adobe Illustrator 19.0.0, SVG Export Plug-In . SVG Version: 6.00 Build 0)  -->
<svg version="1.1" id="Layer_1" xmlns="http://www.w3.org/2000/svg" xmlns:xlink="http://www.w3.org/1999/xlink" x="0px" y="0px"
	 viewBox="0 0 511.779 511.779" style="enable-background:new 0 0 511.779 511.779;" xml:space="preserve">
<path style="fill:#F8B64C;" d="M364.689,335.359c0,2.133,1.067,3.2,1.067,5.333c0,14.933-14.933,27.733-29.867,23.467l-8.533-2.133
	c0,1.067,0,1.067,0,2.133c0,13.867-14.933,24.533-28.8,19.2l-8.533-3.2c0,1.067,0,2.133,0,3.2c0,11.733-11.733,21.333-23.467,19.2
	l-6.4-1.067l-134.4-72.533c0,0-7.467-20.267-25.6-25.6l-26.667-10.667l-14.933-5.333l51.2-132.267l14.933,6.4l17.067,7.467
	c0,0,11.733,4.267,40.533-9.6c17.067-8.533,34.133-16,52.267-22.4l4.267-1.067c0,0,11.733-3.2,22.4,7.467l129.067,158.933l0,0
	C398.823,319.359,383.889,340.692,364.689,335.359z"/>
<rect x="26.519" y="132.821" transform="matrix(-0.9337 -0.3582 0.3582 -0.9337 31.9622 430.5044)" style="fill:#CDD6E0;" width="58.67" height="158.942"/>
<rect x="432.243" y="111.703" transform="matrix(0.9608 -0.2771 0.2771 0.9608 -34.8981 135.3941)" style="fill:#40596B;" width="58.664" height="158.927"/>
<g>
	<path style="fill:#FFD15C;" d="M452.156,264.959l-14.933,2.133l-12.8,2.133l-35.2,34.133
		c-17.067-20.267-30.933-40.533-50.133-58.667c-24.533-23.467-53.333-43.733-53.333-43.733c-25.6,10.667-45.867,3.2-45.867,3.2
		c-9.6,21.333-29.867,36.267-29.867,36.267s-1.067,0-1.067,1.067c-20.267,10.667-42.667-11.733-32-32l17.067-30.933
		c2.133-4.267,6.4-8.533,11.733-10.667l58.667-24.533c4.267-2.133,8.533-2.133,13.867-1.067l70.4,12.8l53.333-10.667l16-3.2
		L452.156,264.959z"/>
	<path style="fill:#FFD15C;" d="M252.689,366.292c-7.467-5.333-18.133-2.133-26.667,7.467c6.4-11.733,5.333-23.467-2.133-29.867
		c-8.533-6.4-23.467-2.133-34.133,9.6c5.333-11.733,4.267-22.4-2.133-27.733c-8.533-7.467-25.6,0-37.333,13.867
		c6.4-11.733,5.333-23.467-2.133-29.867c-8.533-7.467-24.533-2.133-35.2,11.733c-10.667,12.8-11.733,29.867-2.133,36.267
		c8.533,6.4,23.467,2.133,34.133-10.667c-7.467,12.8-7.467,26.667,0,32c8.533,7.467,25.6,0,37.333-13.867
		c-4.267,10.667-3.2,20.267,4.267,25.6c8.533,6.4,24.533,2.133,34.133-10.667c-4.267,8.533-3.2,18.133,2.133,22.4
		c7.467,5.333,19.2,2.133,27.733-8.533C259.089,384.425,260.156,371.625,252.689,366.292z"/>
</g>
<polygon style="fill:#F7AD43;" points="123.623,161.492 73.489,292.692 58.556,286.292 108.689,154.025 "/>
<polygon style="fill:#FFCA55;" points="452.156,264.959 437.223,267.092 400.956,142.292 416.956,139.092 "/>
<circle style="fill:#ACB3BA;" cx="35.089" cy="267.092" r="9.6"/>
<g>
</g>
<g>
</g>
<g>
</g>
<g>
</g>
<g>
</g>
<g>
</g>
<g>
</g>
<g>
</g>
<g>
</g>
<g>
</g>
<g>
</g>
<g>
</g>
<g>
</g>
<g>
</g>
<g>
</g>
</svg>
