<?xml version="1.0" encoding="iso-8859-1"?>
<!-- Generator: Adobe Illustrator 19.0.0, SVG Export Plug-In . SVG Version: 6.00 Build 0)  -->
<svg version="1.1" id="Capa_1" xmlns="http://www.w3.org/2000/svg" xmlns:xlink="http://www.w3.org/1999/xlink" x="0px" y="0px"
	 viewBox="0 0 512 512" style="enable-background:new 0 0 512 512;" xml:space="preserve">
<polygon style="fill:#FFB954;" points="363.333,302 262.825,379.667 141,428.333 141,502 475,502 475,302 "/>
<g>
	<path style="fill:#6A80FF;" d="M374.782,176.741L374.782,176.741C386.259,185.451,393,199.03,393,213.438V302h82V188.722
		c0-26.022-13.164-50.277-34.983-64.457l0,0L374.782,176.741z"/>
	<path style="fill:#6A80FF;" d="M86.443,340.7l45.22-30.696c6.084-4.13,13.268-6.338,20.621-6.338l0,0
		c20.277,0,36.716,16.438,36.716,36.716v68.743l-48,19.208V363.5l-50.665,30.309c-3.309,1.979-5.335,5.552-5.335,9.408v24.301V502
		H37V303.667"/>
</g>
<g>
	<path style="fill:#A0E557;" d="M37,340.7v-90.979c0-15.224,9.573-28.804,23.911-33.921l128.025-45.687
		c8.082-2.884,17.075,0.362,21.451,7.744l0,0c4.812,8.118,2.508,18.576-5.269,23.921L117,262.333"/>
	<path style="fill:#A0E557;" d="M92.316,340.7H37V255h80v61.017C103.368,316.017,92.316,327.068,92.316,340.7z"/>
</g>
<path style="fill:#72D8FF;" d="M440.017,124.265l-66.666-45.033c-17.806-12.028-41.286-11.422-58.448,1.509l-99.209,74.748
	c-7.298,5.498-9.294,15.605-4.634,23.465l0.008,0.013c4.535,7.649,13.99,10.819,22.219,7.449l97.01-39.725l44.485,30.05"/>
<g>
	<path style="fill:#FCC69D;" d="M77,122.174L77,122.174c-20.487,0-37.095,16.608-37.095,37.095v6.393
		c0,20.487,16.608,37.095,37.095,37.095l0,0c20.487,0,37.095-16.608,37.095-37.095v-6.393
		C114.095,138.782,97.487,122.174,77,122.174z"/>
	<path style="fill:#FCC69D;" d="M259.509,20.865L259.509,20.865c-14.487,14.487-14.487,37.974,0,52.461l4.521,4.521
		c14.487,14.487,37.974,14.487,52.461,0l0,0c14.487-14.487,14.487-37.974,0-52.461l-4.521-4.521
		C297.483,6.378,273.996,6.378,259.509,20.865z"/>
</g>
<path d="M37,421c2.63,0,5.21-1.07,7.07-2.931C45.93,416.21,47,413.63,47,411s-1.07-5.21-2.93-7.07S39.63,401,37,401
	s-5.21,1.069-7.07,2.93C28.07,405.79,27,408.37,27,411s1.07,5.21,2.93,7.069C31.79,419.93,34.37,421,37,421z"/>
<path d="M445.627,115.988c-0.004-0.003-0.008-0.007-0.013-0.01l-66.666-45.032c-12.782-8.634-28.008-11.83-42.585-9.68
	c0.651-3.141,0.992-6.369,0.992-9.651c0-12.579-4.899-24.405-13.794-33.301l-4.521-4.521C310.146,4.898,298.319,0,285.74,0
	s-24.406,4.898-33.302,13.794c-8.895,8.896-13.793,20.722-13.793,33.302c0,12.579,4.899,24.405,13.793,33.3l4.521,4.522
	c5.665,5.664,12.521,9.7,20,11.89l-67.283,50.694c-4.282,3.226-7.391,7.463-9.218,12.145c-4.842-0.978-9.974-0.704-14.882,1.049
	l-65.179,23.26c2.381-5.627,3.698-11.809,3.698-18.293v-6.394c0-25.968-21.127-47.095-47.095-47.095s-47.095,21.127-47.095,47.095
	v6.394c0,18.069,10.234,33.785,25.205,41.68C38.195,214.491,27,231.198,27,249.722V369c0,5.522,4.477,10,10,10s10-4.478,10-10v-18.3
	h39.443c2.082,0,4.015-0.638,5.616-1.727l0,0l45.219-30.695c4.445-3.017,9.634-4.611,15.005-4.611
	c14.731,0,26.716,11.984,26.716,26.715v61.974l-28,11.205V363.5c0-3.601-1.936-6.923-5.067-8.699
	c-3.131-1.775-6.976-1.731-10.066,0.117L85.2,385.228c-6.292,3.764-10.2,10.657-10.2,17.989V492H47v-41.98c0-5.522-4.477-10-10-10
	s-10,4.478-10,10V502c0,5.522,4.477,10,10,10h48c5.523,0,10-4.478,10-10v-98.783c0-0.337,0.18-0.654,0.468-0.826L131,381.135V502
	c0,5.522,4.477,10,10,10h334c5.523,0,10-4.478,10-10V188.722C485,159.263,470.284,132.089,445.627,115.988z M465,188.722V292h-20
	v-78.867c0-5.522-4.477-10-10-10s-10,4.478-10,10V292h-22v-78.562c0-13.213-4.771-25.998-13.125-36.005l50.453-40.585
	C455.89,149.477,465,168.391,465,188.722z M266.581,66.254c-5.118-5.117-7.936-11.921-7.936-19.158
	c0-7.238,2.818-14.042,7.936-19.159C271.698,22.818,278.502,20,285.74,20s14.041,2.818,19.159,7.937l4.521,4.521
	c10.564,10.563,10.564,27.754,0,38.318c-10.565,10.564-27.755,10.564-38.318,0.001L266.581,66.254z M221.712,163.475l99.208-74.748
	c13.748-10.357,32.569-10.842,46.833-1.208l55.437,37.447l-48.926,39.357l-38.37-25.919c-2.77-1.872-6.292-2.236-9.387-0.968
	l-97.01,39.726c-3.602,1.472-7.809,0.071-9.808-3.262c-0.009-0.016-0.019-0.031-0.028-0.047
	C217.598,170.372,218.479,165.91,221.712,163.475z M49.905,159.269c0-14.94,12.155-27.095,27.095-27.095
	s27.095,12.154,27.095,27.095v6.394c0,14.94-12.155,27.096-27.095,27.096s-27.095-12.155-27.095-27.096V159.269z M47,249.722
	c0-10.97,6.941-20.816,17.272-24.503l128.025-45.688c3.565-1.271,7.557,0.168,9.487,3.425c2.121,3.578,1.097,8.226-2.33,10.581
	l-88.118,60.555c-2.714,1.865-4.336,4.947-4.336,8.241v52.327L83.371,330.7H47v-27.033V249.722z M152.284,293.667
	c-9.012,0-17.726,2.574-25.284,7.442v-33.515l83.782-57.575c4.767-3.276,8.207-7.813,10.173-12.877
	c1.854,0.38,3.748,0.583,5.655,0.583c3.516,0,7.068-0.664,10.467-2.056l92.058-37.697l39.736,26.841
	c8.849,6.784,14.13,17.469,14.13,28.625V292h-19.667c-2.213,0-4.363,0.734-6.115,2.087L257.817,370.9L199,394.395v-54.013
	C199,314.623,178.043,293.667,152.284,293.667z M465,492H151v-56.894l115.534-46.153c0.862-0.344,1.671-0.806,2.405-1.373
	L366.747,312H465V492z"/>
<path d="M403.667,372.333H417V411c0,5.522,4.477,10,10,10s10-4.478,10-10v-48.667c0-5.522-4.477-10-10-10h-23.333
	c-5.523,0-10,4.478-10,10S398.144,372.333,403.667,372.333z"/>
<path d="M427,440.02c-2.63,0-5.21,1.07-7.07,2.931c-1.86,1.859-2.93,4.439-2.93,7.069s1.07,5.21,2.93,7.07
	c1.86,1.86,4.44,2.93,7.07,2.93s5.21-1.069,7.07-2.93s2.93-4.44,2.93-7.07s-1.07-5.21-2.93-7.069
	C432.21,441.09,429.63,440.02,427,440.02z"/>
<g>
</g>
<g>
</g>
<g>
</g>
<g>
</g>
<g>
</g>
<g>
</g>
<g>
</g>
<g>
</g>
<g>
</g>
<g>
</g>
<g>
</g>
<g>
</g>
<g>
</g>
<g>
</g>
<g>
</g>
</svg>
