<svg viewBox="0 -8 480 480" xmlns="http://www.w3.org/2000/svg"><path d="m192 0c0 26.507812 21.492188 48 48 48 0-26.507812-21.492188-48-48-48zm0 0" fill="#ffb41f"/><path d="m288 0c-26.507812 0-48 21.492188-48 48 26.507812 0 48-21.492188 48-48zm0 0" fill="#ffb41f"/><path d="m344 48h-208v168h208zm0 0" fill="#a3771d"/><path d="m240 192-32-88h-40l72 96 72-96h-40zm0 0" fill="#1cc8eb"/><path d="m240 72 32 32h40l-24-32zm0 0" fill="#1cc8eb"/><path d="m240 72h-48l-24 32h40zm0 0" fill="#1cc8eb"/><path d="m240 104h32l-32-32-32 32zm0 0" fill="#1cc8eb"/><path d="m208 104 32 88 32-88zm0 0" fill="#1cc8eb"/><path d="m318.398438 99.199219-24-32c-1.507813-2.011719-3.878907-3.199219-6.398438-3.199219h-96c-2.519531 0-4.890625 1.1875-6.398438 3.199219l-24 32c-2.136718 2.84375-2.136718 6.757812 0 9.601562l72 96c1.507813 2.011719 3.878907 3.199219 6.398438 3.199219s4.890625-1.1875 6.398438-3.199219l72-96c2.136718-2.84375 2.136718-6.757812 0-9.601562zm-22.398438-3.199219h-20.6875l-16-16h24.6875zm-93.601562 16 17.320312 47.625-35.71875-47.625zm58.1875 0-20.585938 56.59375-20.585938-56.59375zm-33.273438-16 12.6875-12.6875 12.6875 12.6875zm50.289062 16h18.398438l-35.71875 47.625zm-81.601562-32h24.6875l-16 16h-20.6875zm0 0" fill="#b9effa"/><path d="m444.222656 248h-1.664062c-6.800782 0-13.367188 2.496094-18.453125 7.015625l-64.105469 56.984375h-88l47.832031-13.046875c8.457031-2.335937 14.984375-9.070313 17.050781-17.597656 2.066407-8.527344-.652343-17.503907-7.101562-23.453125-6.449219-5.949219-15.617188-7.933594-23.949219-5.183594l-81.832031 27.28125h-120l-40 40 96 96 56-40h160l86.992188-79.742188c5.738281-5.265624 9.007812-12.695312 9.007812-20.480468-.003906-15.339844-12.4375-27.773438-27.777344-27.777344zm0 0" fill="#f7e5be"/><path d="m136 216h-128v32h464v-32zm0 0" fill="#8c8c8c"/><g fill="#ffb41f"><path d="m376 24h16v16h-16zm0 0"/><path d="m392 8h16v16h-16zm0 0"/><path d="m408 24h16v16h-16zm0 0"/><path d="m392 40h16v16h-16zm0 0"/><path d="m464 0h16v16h-16zm0 0"/><path d="m400 88h16v16h-16zm0 0"/><path d="m72 80h16v16h-16zm0 0"/><path d="m72 112h16v16h-16zm0 0"/><path d="m88 96h16v16h-16zm0 0"/><path d="m56 96h16v16h-16zm0 0"/><path d="m0 40h16v16h-16zm0 0"/><path d="m72 0h16v16h-16zm0 0"/></g><path d="m160 416-112-112-40 40 120 120 40-40zm0 0" fill="#1cc8eb"/><path d="m40 336.003906c3.125-3.125 8.191406-3.125 11.316406 0l12.6875 12.6875c3.125 3.125 3.125 8.1875 0 11.3125s-8.191406 3.125-11.316406 0l-12.6875-12.6875c-3.125-3.125-3.125-8.191406 0-11.3125zm0 0" fill="#74d5e8"/></svg>